<svg xmlns="http://www.w3.org/2000/svg" xmlns:xlink="http://www.w3.org/1999/xlink" width="500" zoomAndPan="magnify" viewBox="0 0 375 374.999991" height="500" preserveAspectRatio="xMidYMid meet" version="1.0"><defs><clipPath id="72007979f7"><path d="M 34.570312 10.957031 L 340.570312 10.957031 L 340.570312 364.207031 L 34.570312 364.207031 Z M 34.570312 10.957031 " clip-rule="nonzero"/></clipPath></defs><g clip-path="url(#72007979f7)"><path fill="#0b7285" d="M 187.5 10.957031 L 34.617188 99.226562 L 34.617188 275.761719 L 187.5 364.03125 L 340.378906 275.761719 L 340.378906 99.226562 Z M 187.5 40.121094 L 315.101562 113.773438 L 315.101562 166.027344 L 187.5 92.375 L 93.230469 146.820312 L 232.761719 227.390625 L 187.5 253.519531 L 59.898438 179.867188 L 59.898438 113.84375 Z M 187.5 121.46875 L 315.101562 195.121094 L 315.101562 261.144531 L 187.5 334.867188 L 59.898438 261.144531 L 59.898438 208.890625 L 187.5 282.542969 L 281.769531 228.167969 L 142.234375 147.597656 Z M 187.5 121.46875 " fill-opacity="1" fill-rule="nonzero"/></g></svg>
