<svg xmlns="http://www.w3.org/2000/svg" xmlns:xlink="http://www.w3.org/1999/xlink" width="500" zoomAndPan="magnify" viewBox="0 0 375 374.999991" height="500" preserveAspectRatio="xMidYMid meet" version="1.0"><defs><clipPath id="6e37c1ec35"><path d="M 125.703125 116.160156 L 249.453125 116.160156 L 249.453125 258.660156 L 125.703125 258.660156 Z M 125.703125 116.160156 " clip-rule="nonzero"/></clipPath></defs><rect x="-37.5" width="450" fill="#ffffff" y="-37.499999" height="449.999989" fill-opacity="1"/><rect x="-37.5" width="450" fill="#021f1e" y="-37.499999" height="449.999989" fill-opacity="1"/><g clip-path="url(#6e37c1ec35)"><path fill="#0b7285" d="M 187.496094 116.160156 L 125.71875 151.828125 L 125.71875 223.167969 L 187.496094 258.835938 L 249.273438 223.167969 L 249.273438 151.828125 Z M 187.496094 127.945312 L 239.058594 157.707031 L 239.058594 178.824219 L 187.496094 149.0625 L 149.402344 171.0625 L 205.785156 203.621094 L 187.496094 214.179688 L 135.933594 184.417969 L 135.933594 157.738281 Z M 187.496094 160.816406 L 239.058594 190.582031 L 239.058594 217.261719 L 187.496094 247.050781 L 135.933594 217.261719 L 135.933594 196.144531 L 187.496094 225.90625 L 225.589844 203.933594 L 169.203125 171.375 Z M 187.496094 160.816406 " fill-opacity="1" fill-rule="nonzero"/></g></svg>