<svg xmlns="http://www.w3.org/2000/svg" xmlns:xlink="http://www.w3.org/1999/xlink" width="500" zoomAndPan="magnify" viewBox="0 0 375 374.999991" height="500" preserveAspectRatio="xMidYMid meet" version="1.0">
<defs><clipPath id="b0fbd3dc71"><path d="M 37.5 5.339844 L 353.25 5.339844 L 353.25 369.839844 L 37.5 369.839844 Z M 37.5 5.339844 " clip-rule="nonzero"/></clipPath>
</defs><g clip-path="url(#b0fbd3dc71)"><path fill="#4fd1c5" d="M 195.292969 5.339844 L 37.546875 96.417969 L 37.546875 278.574219 L 195.292969 369.652344 L 353.039062 278.574219 L 353.039062 96.417969 Z M 195.292969 35.433594 L 326.957031 111.425781 L 326.957031 165.347656 L 195.292969 89.351562 L 98.023438 145.527344 L 241.996094 228.664062 L 195.292969 255.621094 L 63.628906 179.625 L 63.628906 111.5 Z M 195.292969 119.371094 L 326.957031 195.363281 L 326.957031 263.492188 L 195.292969 339.558594 L 63.628906 263.492188 L 63.628906 209.574219 L 195.292969 285.570312 L 292.5625 229.464844 L 148.589844 146.328125 Z M 195.292969 119.371094 " fill-opacity="1" fill-rule="nonzero"/></g></svg>
