<svg xmlns="http://www.w3.org/2000/svg" xmlns:xlink="http://www.w3.org/1999/xlink" width="500" zoomAndPan="magnify" viewBox="0 0 375 374.999991" height="500" preserveAspectRatio="xMidYMid meet" version="1.0"><defs><clipPath id="b00ffe8fe1"><path d="M 31.878906 7.847656 L 343.128906 7.847656 L 343.128906 367.097656 L 31.878906 367.097656 Z M 31.878906 7.847656 " clip-rule="nonzero"/></clipPath></defs><rect x="-37.5" width="450" fill="#ffffff" y="-37.499999" height="449.999989" fill-opacity="1"/><rect x="-37.5" width="450" fill="#001f24" y="-37.499999" height="449.999989" fill-opacity="1"/><g clip-path="url(#b00ffe8fe1)"><path fill="#96f2d7" d="M 187.496094 7.847656 L 31.921875 97.671875 L 31.921875 277.320312 L 187.496094 367.144531 L 343.070312 277.320312 L 343.070312 97.671875 Z M 187.496094 37.527344 L 317.347656 112.476562 L 317.347656 165.652344 L 187.496094 90.703125 L 91.5625 146.105469 L 233.558594 228.097656 L 187.496094 254.6875 L 57.648438 179.738281 L 57.648438 112.546875 Z M 187.496094 120.308594 L 317.347656 195.257812 L 317.347656 262.445312 L 187.496094 337.46875 L 57.648438 262.445312 L 57.648438 209.269531 L 187.496094 284.21875 L 283.429688 228.886719 L 141.433594 146.898438 Z M 187.496094 120.308594 " fill-opacity="1" fill-rule="nonzero"/></g></svg>